<?xml version="1.0" encoding="utf-8"?>
<!-- Generator: Adobe Illustrator 27.8.1, SVG Export Plug-In . SVG Version: 6.00 Build 0)  -->
<svg version="1.1" id="Layer_1" xmlns="http://www.w3.org/2000/svg" xmlns:xlink="http://www.w3.org/1999/xlink" x="0px" y="0px"
	 viewBox="0 0 320 320" style="enable-background:new 0 0 320 320;" xml:space="preserve">
<style type="text/css">
	.st0{display:none;}
	.st1{fill:#1D1D1B;}
	.st2{fill:#FFFFFF;}
	.st3{fill:none;}
</style>
<g id="Layer_1_00000112598055277682705060000014242275502436406180_" class="st0">
</g>
<g id="Layer_2_00000131355009458236912790000009811138000919391904_">
	<g>
		<path class="st1" d="M226.1,114.1l0.3,134.2H93.1v0.1h133.4L226.1,114.1z M133,94.6c0.2-0.8,0.4-1.7,0.6-2.5
			C133.3,92.9,133.1,93.8,133,94.6z M132.6,96.3c0,0.1,0,0.2,0,0.2c0,0.2-0.1,0.4-0.1,0.6c0,0.3-0.1,0.5-0.1,0.8
			c0,0.4-0.1,0.7-0.1,1c0,0.2,0,0.4-0.1,0.5c0,0.2,0,0.4,0,0.6c0,0.4-0.1,0.7-0.1,1.1c-0.2,3.2,0,5.3,0,5.3h0.1c0,0-0.2-1.8-0.1-4.5
			c0-0.3,0-0.6,0-0.9c0-0.3,0-0.6,0-0.9c0,0,0,0,0,0c0-0.3,0-0.6,0.1-0.9c0,0,0-0.1,0-0.1c0.1-0.6,0.1-1.3,0.2-2
			c0-0.4,0.1-0.8,0.2-1.2C132.7,96.2,132.6,96.2,132.6,96.3z M134.6,88.8c-0.1,0.3-0.2,0.5-0.3,0.8l0.6-1.5
			C134.8,88.4,134.7,88.6,134.6,88.8z"/>
		<path class="st2" d="M134.6,88.8c-0.1,0.3-0.2,0.5-0.3,0.8l0.6-1.5C134.8,88.4,134.7,88.6,134.6,88.8z M133.6,92.1
			c-0.2,0.9-0.5,1.7-0.6,2.5C133.1,93.8,133.3,92.9,133.6,92.1z M132.6,96.6c0,0.2-0.1,0.4-0.1,0.6c0,0.3-0.1,0.5-0.1,0.8
			c0,0.4-0.1,0.7-0.1,1c0,0.2,0,0.4-0.1,0.5c0,0.2,0,0.4,0,0.6c0,0.4-0.1,0.7-0.1,1.1c-0.2,3.2,0,5.3,0,5.3h0.1c0,0-0.2-1.8-0.1-4.5
			c0-0.3,0-0.6,0-0.9c0-0.3,0-0.6,0-0.9c0,0,0,0,0,0c0-0.3,0-0.6,0.1-0.9c0,0,0-0.1,0-0.1c0.1-0.6,0.1-1.3,0.2-2
			c0-0.4,0.1-0.8,0.2-1.2c0,0.1,0,0.2,0,0.3C132.6,96.4,132.6,96.5,132.6,96.6z M195.3,106.9c0,0-1.4-41.4-34.7-41.4
			c-36.1,0-36.1,41.8-36.1,41.8H85.8v147.4h148.4V106.9H195.3z M132.8,95.3c0-0.2,0.1-0.5,0.1-0.7c0.2-0.8,0.4-1.7,0.6-2.5l0.2-0.8
			c0.2-0.5,0.3-1.1,0.5-1.6l0.6-1.5c0.3-0.6,0.6-1.3,0.9-1.9c0.1-0.2,0.2-0.4,0.3-0.6c0.3-0.7,0.7-1.3,1.1-2
			c0.1-0.2,0.2-0.4,0.4-0.5c0.5-0.8,1.1-1.6,1.8-2.4c0.2-0.2,0.3-0.4,0.5-0.6c0.6-0.7,1.3-1.4,2.1-2c0.2-0.2,0.4-0.3,0.6-0.5
			c0.3-0.2,0.6-0.5,1-0.7c0.2-0.1,0.3-0.2,0.5-0.3c0.3-0.2,0.6-0.4,0.9-0.6c0.2-0.1,0.3-0.2,0.5-0.3c1-0.5,2-1,3-1.4
			c0.2-0.1,0.3-0.1,0.5-0.2c0.2,0,0.3-0.1,0.5-0.2c1.5-0.5,3-0.9,4.7-1.1c0.3-0.1,0.7-0.1,1-0.1c1.6-0.2,3.2-0.3,5-0.3
			c1.7,0,3.3,0.1,4.8,0.3c0.6,0.1,1.2,0.2,1.8,0.3c1.7,0.3,3.2,0.7,4.6,1.2c0.3,0.1,0.6,0.2,0.8,0.3c1.7,0.7,3.1,1.4,4.5,2.3
			c0.2,0.1,0.4,0.3,0.6,0.4c0,0,0.1,0.1,0.1,0.1c0.6,0.4,1.2,0.9,1.7,1.4c0.5,0.4,1,0.9,1.4,1.4c0.5,0.5,0.9,1,1.3,1.5
			c0.1,0.2,0.3,0.3,0.4,0.5l0,0c0.3,0.4,0.5,0.7,0.8,1.1c0.2,0.4,0.5,0.7,0.7,1.1c1.3,2.3,2.3,4.7,3,7c0.1,0.2,0.1,0.5,0.2,0.7
			c0,0.1,0,0.2,0.1,0.3c0.1,0.4,0.2,0.7,0.3,1.1c0.1,0.5,0.2,1,0.3,1.5c0,0.2,0.1,0.5,0.1,0.7c0.1,0.5,0.2,0.9,0.2,1.3
			c0.1,0.4,0.1,0.9,0.2,1.3c0,0.2,0,0.4,0.1,0.6c0.4,4.4,0,7.6,0,7.6h-56c0,0-0.2-1.8-0.1-4.5c0-0.3,0-0.6,0-0.9c0-0.3,0-0.6,0-0.9
			c0,0,0,0,0,0c0-0.3,0-0.6,0.1-0.9c0,0,0-0.1,0-0.1c0.1-0.6,0.1-1.3,0.2-2c0-0.4,0.1-0.8,0.2-1.2C132.7,95.8,132.8,95.6,132.8,95.3
			z M93.1,248.4v-0.1l-0.7-134.1H124c4.6,46.7,8.4,0,8.4,0l55.4,0.3c0,0,3.5,44.1,7.4-0.1l30.9-0.3l0.4,134.3H93.1z M132.6,96.3
			c0,0.1,0,0.2,0,0.2c0,0.2-0.1,0.4-0.1,0.6c0,0.3-0.1,0.5-0.1,0.8c0,0.4-0.1,0.7-0.1,1c0,0.2,0,0.4-0.1,0.5c0,0.2,0,0.4,0,0.6
			c0,0.4-0.1,0.7-0.1,1.1c-0.2,3.2,0,5.3,0,5.3h0.1c0,0-0.2-1.8-0.1-4.5c0-0.3,0-0.6,0-0.9c0-0.3,0-0.6,0-0.9c0,0,0,0,0,0
			c0-0.3,0-0.6,0.1-0.9c0,0,0-0.1,0-0.1c0.1-0.6,0.1-1.3,0.2-2c0-0.4,0.1-0.8,0.2-1.2C132.7,96.2,132.6,96.2,132.6,96.3z M133,94.6
			c0.2-0.8,0.4-1.7,0.6-2.5C133.3,92.9,133.1,93.8,133,94.6z M134.6,88.8c-0.1,0.3-0.2,0.5-0.3,0.8l0.6-1.5
			C134.8,88.4,134.7,88.6,134.6,88.8z M182.4,82.2c-0.1-0.2-0.2-0.3-0.4-0.5C182.1,81.9,182.2,82.1,182.4,82.2L182.4,82.2
			C182.4,82.3,182.4,82.3,182.4,82.2z M183.9,84.5c1.3,2.3,2.3,4.7,3,7c0.1,0.2,0.1,0.5,0.2,0.7c0,0.1,0,0.2,0.1,0.3
			c0.1,0.4,0.2,0.7,0.3,1.1c0.1,0.5,0.2,1,0.3,1.5c0,0.2,0.1,0.5,0.1,0.7c0.1,0.5,0.2,0.9,0.2,1.3c0.1,0.4,0.1,0.9,0.2,1.3
			c0,0.2,0,0.4,0.1,0.6c0.4,4.4,0,7.6,0,7.6h0.1C188.3,106.5,189.8,94.3,183.9,84.5z"/>
		<path class="st3" d="M132.1,101.1c0-0.6,0.1-1.2,0.1-1.8C132.2,100,132.2,100.6,132.1,101.1z"/>
		<path class="st3" d="M182.4,82.2C182.4,82.3,182.4,82.3,182.4,82.2L182.4,82.2L182.4,82.2z"/>
		<path class="st3" d="M133.8,91.2c0.2-0.5,0.3-1.1,0.5-1.6c0.1-0.3,0.2-0.5,0.3-0.8c0.1-0.2,0.2-0.4,0.3-0.6"/>
		<path class="st3" d="M132.8,95.3c-0.1,0.3-0.1,0.5-0.1,0.8c0,0.1,0,0.2,0,0.3c0,0.1,0,0.2,0,0.2c0,0.2-0.1,0.4-0.1,0.6
			c0,0.3-0.1,0.5-0.1,0.8c0,0.3-0.1,0.7-0.1,1c0,0.2,0,0.4-0.1,0.5c0,0.2,0,0.4,0,0.6c0,0.4-0.1,0.7-0.1,1.1c-0.2,3.2,0,5.3,0,5.3
			h0.1"/>
		<path class="st3" d="M133.6,92.1c-0.2,0.9-0.4,1.7-0.6,2.6"/>
		<polygon class="st3" points="226.5,248.4 93.1,248.4 93.1,248.3 226.4,248.3 226.1,114.1 		"/>
		<polygon class="st3" points="226.5,248.4 93.1,248.4 93.1,248.3 226.4,248.3 226.1,114.1 		"/>
		<path class="st3" d="M133.8,91.2c0.2-0.5,0.3-1.1,0.5-1.6c0.1-0.3,0.2-0.5,0.3-0.8c0.1-0.2,0.2-0.4,0.3-0.6"/>
		<path class="st3" d="M132.8,95.3c-0.1,0.3-0.1,0.5-0.1,0.8c0,0.1,0,0.2,0,0.3c0,0.1,0,0.2,0,0.2c0,0.2-0.1,0.4-0.1,0.6
			c0,0.3-0.1,0.5-0.1,0.8c0,0.3-0.1,0.7-0.1,1c0,0.2,0,0.4-0.1,0.5c0,0.2,0,0.4,0,0.6c0,0.4-0.1,0.7-0.1,1.1c-0.2,3.2,0,5.3,0,5.3
			h0.1"/>
		<path class="st3" d="M133.6,92.1c-0.2,0.9-0.4,1.7-0.6,2.6"/>
	</g>
</g>
</svg>
